<svg width="12" height="12" viewBox="0 0 12 12" fill="none" xmlns="http://www.w3.org/2000/svg">
<path d="M5.52483 10.001C8.06757 10.001 10.1289 7.9657 10.1289 5.45507C10.1289 2.94444 8.06757 0.909178 5.52483 0.909178C2.9821 0.909178 0.920806 2.94444 0.920806 5.45507C0.920806 7.9657 2.9821 10.001 5.52483 10.001ZM5.52483 10.9101C2.47355 10.9101 0 8.46782 0 5.45507C0 2.44232 2.47355 0 5.52483 0C8.57612 0 11.0497 2.44232 11.0497 5.45507C11.0497 8.46782 8.57612 10.9101 5.52483 10.9101Z" fill="#EA1D2C"/>
<path d="M9.72117 9.10702C9.54137 8.9295 9.24986 8.9295 9.07006 9.10702C8.89026 9.28455 8.89026 9.57238 9.07006 9.74991L11.0234 11.6786C11.2032 11.8561 11.4947 11.8561 11.6745 11.6786C11.8543 11.501 11.8543 11.2132 11.6745 11.0357L9.72117 9.10702Z" fill="#EA1D2C"/>
</svg>
