<svg width="12" height="12" viewBox="0 0 12 12" fill="none" xmlns="http://www.w3.org/2000/svg">
<path d="M6 0C2.68548 0 0 2.68548 0 6C0 9.31452 2.68548 12 6 12C9.31452 12 12 9.31452 12 6C12 2.68548 9.31452 0 6 0ZM8.94194 7.575C9.05565 7.68871 9.05565 7.87258 8.94194 7.98629L7.98387 8.94194C7.87016 9.05565 7.68629 9.05565 7.57258 8.94194L6 7.35484L4.425 8.94194C4.31129 9.05565 4.12742 9.05565 4.01371 8.94194L3.05806 7.98387C2.94435 7.87016 2.94435 7.68629 3.05806 7.57258L4.64516 6L3.05806 4.425C2.94435 4.31129 2.94435 4.12742 3.05806 4.01371L4.01613 3.05565C4.12984 2.94194 4.31371 2.94194 4.42742 3.05565L6 4.64516L7.575 3.05806C7.68871 2.94435 7.87258 2.94435 7.98629 3.05806L8.94435 4.01613C9.05806 4.12984 9.05806 4.31371 8.94435 4.42742L7.35484 6L8.94194 7.575Z" fill="black"/>
</svg>
