<svg width="16" height="13" viewBox="0 0 16 13" fill="none" xmlns="http://www.w3.org/2000/svg">
<path d="M15.6 5.2H14V3.6C14 3.38 13.82 3.2 13.6 3.2H12.8C12.58 3.2 12.4 3.38 12.4 3.6V5.2H10.8C10.58 5.2 10.4 5.38 10.4 5.6V6.4C10.4 6.62 10.58 6.8 10.8 6.8H12.4V8.4C12.4 8.62 12.58 8.8 12.8 8.8H13.6C13.82 8.8 14 8.62 14 8.4V6.8H15.6C15.82 6.8 16 6.62 16 6.4V5.6C16 5.38 15.82 5.2 15.6 5.2ZM5.6 6.4C7.3675 6.4 8.8 4.9675 8.8 3.2C8.8 1.4325 7.3675 0 5.6 0C3.8325 0 2.4 1.4325 2.4 3.2C2.4 4.9675 3.8325 6.4 5.6 6.4ZM7.84 7.2H7.4225C6.8675 7.455 6.25 7.6 5.6 7.6C4.95 7.6 4.335 7.455 3.7775 7.2H3.36C1.505 7.2 0 8.705 0 10.56V11.6C0 12.2625 0.5375 12.8 1.2 12.8H10C10.6625 12.8 11.2 12.2625 11.2 11.6V10.56C11.2 8.705 9.695 7.2 7.84 7.2Z" fill="black"/>
</svg>
